<?xml version="1.0" encoding="UTF-8"?>
<svg width="6px" height="23px" viewBox="0 0 6 23" version="1.1" xmlns="http://www.w3.org/2000/svg" xmlns:xlink="http://www.w3.org/1999/xlink">
    <!-- Generator: Sketch 50.2 (55047) - http://www.bohemiancoding.com/sketch -->
    <title>ic-more</title>
    <desc>Created with Sketch.</desc>
    <defs></defs>
    <g id="Page-1" stroke="none" stroke-width="1" fill="none" fill-rule="evenodd">
        <g id="04-MVP-design--Admin--Dashboard" transform="translate(-1453.000000, -351.000000)" fill="#0082F0">
            <path d="M1447.53846,365 C1446.13651,365 1445,363.880712 1445,362.5 C1445,361.119288 1446.13651,360 1447.53846,360 C1448.94042,360 1450.07692,361.119288 1450.07692,362.5 C1450.07692,363.880712 1448.94042,365 1447.53846,365 Z M1456,365 C1454.59805,365 1453.46154,363.880712 1453.46154,362.5 C1453.46154,361.119288 1454.59805,360 1456,360 C1457.40195,360 1458.53846,361.119288 1458.53846,362.5 C1458.53846,363.880712 1457.40195,365 1456,365 Z M1464.46154,365 C1463.05958,365 1461.92308,363.880712 1461.92308,362.5 C1461.92308,361.119288 1463.05958,360 1464.46154,360 C1465.86349,360 1467,361.119288 1467,362.5 C1467,363.880712 1465.86349,365 1464.46154,365 Z" id="ic-more" transform="translate(1456.000000, 362.500000) rotate(90.000000) translate(-1456.000000, -362.500000) "></path>
        </g>
    </g>
</svg>